<svg width="30px" height="24px" xmlns="http://www.w3.org/2000/svg">
    <path d="M0 12 c0 0, 3 0, 3 -4 v-4 c0 0, 0 -4, 3 -4" fill="none" stroke="black" stroke-width="1" />
    <path d="M0 12 c0 0, 3 0, 3 4 v4 c0 0, 0 4, 3 4" fill="none" stroke="black" stroke-width="1" />
    <path d="M6 12 l5 6" fill="none" stroke="black" stroke-width="1" />
    <path d="M6 12 l5 -6" fill="none" stroke="black" stroke-width="1" />
    <path d="M13 22 L17 2" fill="none" stroke="black" stroke-width="1" />
    <path d="M24 12 l-5 6" fill="none" stroke="black" stroke-width="1" />
    <path d="M24 12 l-5 -6" fill="none" stroke="black" stroke-width="1" />
    <path d="M30 12 c0 0, -3 0, -3 -4 v-4 c0 0, 0 -4, -3 -4" fill="none" stroke="black" stroke-width="1" />
    <path d="M30 12 c0 0, -3 0, -3 4 v4 c0 0, 0 4, -3 4" fill="none" stroke="black" stroke-width="1" />
</svg>